<svg width="128" height="128" viewBox="0 0 128 128" xmlns="http://www.w3.org/2000/svg">
  <defs>
    <!-- Gradient definitions -->
    <linearGradient id="documentGradient" x1="0%" y1="0%" x2="100%" y2="100%">
      <stop offset="0%" style="stop-color:#2563eb;stop-opacity:1" />
      <stop offset="100%" style="stop-color:#1d4ed8;stop-opacity:1" />
    </linearGradient>
    
    <linearGradient id="shieldGradient" x1="0%" y1="0%" x2="100%" y2="100%">
      <stop offset="0%" style="stop-color:#10b981;stop-opacity:1" />
      <stop offset="100%" style="stop-color:#059669;stop-opacity:1" />
    </linearGradient>
    
    <linearGradient id="lockGradient" x1="0%" y1="0%" x2="100%" y2="100%">
      <stop offset="0%" style="stop-color:#f59e0b;stop-opacity:1" />
      <stop offset="100%" style="stop-color:#d97706;stop-opacity:1" />
    </linearGradient>
    
    <!-- Animation definitions -->
    <style>
      .document-animation {
        animation: documentFloat 3s ease-in-out infinite;
        transform-origin: center;
      }
      
      .shield-animation {
        animation: shieldPulse 2s ease-in-out infinite;
        transform-origin: center;
      }
      
      .lock-animation {
        animation: lockBounce 2.5s ease-in-out infinite;
        transform-origin: center;
      }
      
      .sparkle-animation {
        animation: sparkle 1.5s ease-in-out infinite;
        transform-origin: center;
      }
      
      @keyframes documentFloat {
        0%, 100% { transform: translateY(0px) rotate(0deg); }
        50% { transform: translateY(-8px) rotate(2deg); }
      }
      
      @keyframes shieldPulse {
        0%, 100% { transform: scale(1); opacity: 1; }
        50% { transform: scale(1.1); opacity: 0.8; }
      }
      
      @keyframes lockBounce {
        0%, 100% { transform: translateY(0px); }
        50% { transform: translateY(-4px); }
      }
      
      @keyframes sparkle {
        0%, 100% { opacity: 0; transform: scale(0.5); }
        50% { opacity: 1; transform: scale(1.2); }
      }
    </style>
  </defs>
  
  <!-- Background circle -->
  <circle cx="64" cy="64" r="60" fill="url(#documentGradient)" opacity="0.1"/>
  
  <!-- Main document -->
  <g class="document-animation">
    <!-- Document body -->
    <rect x="35" y="25" width="58" height="78" rx="4" ry="4" 
          fill="url(#documentGradient)" stroke="#1e40af" stroke-width="2"/>
    
    <!-- Document fold -->
    <path d="M 85 25 L 85 45 L 65 25 Z" fill="#1e40af" opacity="0.3"/>
    
    <!-- Document lines -->
    <line x1="45" y1="45" x2="75" y2="45" stroke="#ffffff" stroke-width="2" opacity="0.8"/>
    <line x1="45" y1="55" x2="70" y2="55" stroke="#ffffff" stroke-width="2" opacity="0.6"/>
    <line x1="45" y1="65" x2="75" y2="65" stroke="#ffffff" stroke-width="2" opacity="0.8"/>
    <line x1="45" y1="75" x2="65" y2="75" stroke="#ffffff" stroke-width="2" opacity="0.6"/>
    <line x1="45" y1="85" x2="70" y2="85" stroke="#ffffff" stroke-width="2" opacity="0.8"/>
  </g>
  
  <!-- Security shield -->
  <g class="shield-animation">
    <path d="M 64 20 L 45 30 L 45 55 C 45 70 64 85 64 85 C 64 85 83 70 83 55 L 83 30 Z" 
          fill="url(#shieldGradient)" stroke="#047857" stroke-width="2"/>
    
    <!-- Shield checkmark -->
    <path d="M 55 50 L 60 55 L 70 45" stroke="#ffffff" stroke-width="3" 
          fill="none" stroke-linecap="round" stroke-linejoin="round"/>
  </g>
  
  <!-- Lock icon -->
  <g class="lock-animation">
    <!-- Lock body -->
    <rect x="50" y="70" width="28" height="20" rx="3" ry="3" 
          fill="url(#lockGradient)" stroke="#b45309" stroke-width="2"/>
    
    <!-- Lock shackle -->
    <path d="M 58 70 C 58 65 60 60 64 60 C 68 60 70 65 70 70" 
          stroke="url(#lockGradient)" stroke-width="3" fill="none" 
          stroke-linecap="round"/>
    
    <!-- Lock keyhole -->
    <circle cx="64" cy="78" r="3" fill="#ffffff"/>
    <rect x="62" y="78" width="4" height="6" fill="#ffffff"/>
  </g>
  
  <!-- Sparkle effects -->
  <g class="sparkle-animation">
    <circle cx="25" cy="35" r="2" fill="#fbbf24" opacity="0.8"/>
    <circle cx="95" cy="45" r="1.5" fill="#f59e0b" opacity="0.6"/>
    <circle cx="30" cy="85" r="1" fill="#fbbf24" opacity="0.7"/>
    <circle cx="100" cy="75" r="2.5" fill="#f59e0b" opacity="0.5"/>
  </g>
  
  <!-- Additional sparkles with delay -->
  <g class="sparkle-animation" style="animation-delay: 0.5s;">
    <circle cx="20" cy="60" r="1.5" fill="#fbbf24" opacity="0.6"/>
    <circle cx="105" cy="35" r="1" fill="#f59e0b" opacity="0.8"/>
  </g>
  
  <!-- Connection lines (representing sharing) -->
  <g opacity="0.3">
    <line x1="25" y1="35" x2="35" y2="45" stroke="#2563eb" stroke-width="1" 
          stroke-dasharray="2,2">
      <animate attributeName="stroke-dashoffset" values="0;4" dur="2s" repeatCount="indefinite"/>
    </line>
    <line x1="95" y1="45" x2="85" y2="55" stroke="#2563eb" stroke-width="1" 
          stroke-dasharray="2,2">
      <animate attributeName="stroke-dashoffset" values="0;4" dur="2s" repeatCount="indefinite" begin="0.5s"/>
    </line>
  </g>
</svg>
