<svg width="128" height="128" viewBox="0 0 128 128" xmlns="http://www.w3.org/2000/svg">
  <defs>
    <linearGradient id="bg" x1="0%" y1="0%" x2="100%" y2="100%">
      <stop offset="0%" style="stop-color:#2563eb;stop-opacity:1" />
      <stop offset="100%" style="stop-color:#1d4ed8;stop-opacity:1" />
    </linearGradient>
    <linearGradient id="shield" x1="0%" y1="0%" x2="100%" y2="100%">
      <stop offset="0%" style="stop-color:#10b981;stop-opacity:1" />
      <stop offset="100%" style="stop-color:#059669;stop-opacity:1" />
    </linearGradient>
  </defs>
  
  <!-- Background -->
  <circle cx="64" cy="64" r="60" fill="url(#bg)" opacity="0.1"/>
  
  <!-- Document -->
  <rect x="35" y="25" width="58" height="78" rx="4" fill="url(#bg)" stroke="#1e40af" stroke-width="2"/>
  <path d="M 85 25 L 85 45 L 65 25 Z" fill="#1e40af" opacity="0.3"/>
  <line x1="45" y1="45" x2="75" y2="45" stroke="#ffffff" stroke-width="2" opacity="0.8"/>
  <line x1="45" y1="55" x2="70" y2="55" stroke="#ffffff" stroke-width="2" opacity="0.6"/>
  <line x1="45" y1="65" x2="75" y2="65" stroke="#ffffff" stroke-width="2" opacity="0.8"/>
  
  <!-- Shield -->
  <path d="M 64 20 L 45 30 L 45 55 C 45 70 64 85 64 85 C 64 85 83 70 83 55 L 83 30 Z" fill="url(#shield)" stroke="#047857" stroke-width="2"/>
  <path d="M 55 50 L 60 55 L 70 45" stroke="#ffffff" stroke-width="3" fill="none" stroke-linecap="round"/>
  
  <!-- Lock -->
  <rect x="50" y="70" width="28" height="20" rx="3" fill="#f59e0b" stroke="#d97706" stroke-width="2"/>
  <path d="M 58 70 C 58 65 60 60 64 60 C 68 60 70 65 70 70" stroke="#f59e0b" stroke-width="3" fill="none" stroke-linecap="round"/>
  <circle cx="64" cy="78" r="3" fill="#ffffff"/>
  <rect x="62" y="78" width="4" height="6" fill="#ffffff"/>
</svg>
